<svg width="19" height="22" viewBox="0 0 19 22" fill="none" xmlns="http://www.w3.org/2000/svg">
<path d="M11.7841 17.7099C11.7841 18.3074 11.3922 19.091 10.8927 19.3946L9.5117 20.2859C8.22859 21.0793 6.4459 20.188 6.4459 18.6012V13.361C6.4459 12.6656 6.05411 11.7742 5.65252 11.2845L1.8913 7.32742C1.39176 6.82789 1 5.94636 1 5.34888V3.07648C1 1.89132 1.89134 1 2.97857 1H16.0447C17.1319 1 18.0234 1.89132 18.0234 2.97854V5.15298C18.0234 5.94635 17.5238 6.93564 17.0341 7.42538" stroke="white" stroke-width="1.46922" stroke-miterlimit="10" stroke-linecap="round" stroke-linejoin="round"/>
<path d="M13.4981 15.2122C15.2291 15.2122 16.6324 13.8089 16.6324 12.0779C16.6324 10.3468 15.2291 8.94354 13.4981 8.94354C11.7671 8.94354 10.3638 10.3468 10.3638 12.0779C10.3638 13.8089 11.7671 15.2122 13.4981 15.2122Z" stroke="white" stroke-width="1.46922" stroke-linecap="round" stroke-linejoin="round"/>
<path d="M17.2202 15.7999L16.2407 14.8204" stroke="white" stroke-width="1.46922" stroke-linecap="round" stroke-linejoin="round"/>
</svg>
